<?xml version="1.0" encoding="UTF-8"?><svg id="Calque_2" xmlns="http://www.w3.org/2000/svg" viewBox="0 0 132.72 117.02"><defs><style>.cls-1{fill:#DF0914;}</style></defs><g id="Calque_2-2"><path class="cls-1" d="M84.73,0H0V84.73l51.09,32.29h81.63V35.34L84.73,0ZM51.09,11.76h11.4v4.38h-2.98v9.67h-5.45v-9.67h-2.98v-4.38Zm1.65,47.17h6.3l1.63,6.16,1.63-6.16h6.28l1.65,14.05h-5.1l-.44-6.56-2.35,6.56h-3.35l-2.35-6.56-.43,6.56h-5.12l1.65-14.05ZM35.36,11.76h9.79v3.84h-4.34v1.39h3.99v3.59h-3.99v1.39h4.64v3.84h-10.09V11.76Zm.13,37.63v-14.05h5.45v9.68h4.38v4.38h-9.83Zm5.69,9.53v14.05h-5.4v-14.05h5.4ZM14.5,11.76h5.02l4.18,6.39v-6.39h5.01v14.05h-5.01l-4.18-6.39v6.39h-5.02V11.76Zm0,23.58h9.79v3.84h-4.34v1.71h3.93v3.58h-3.93v4.92h-5.45v-14.05Zm0,23.59h5.4v14.05h-5.4v-14.05Zm69.28,23.11c0,1.29-1.05,2.34-2.34,2.34H4.61c-.61,0-1.16-.39-1.36-.97-.19-.55,.22-1.12,.8-1.12l75.6-.06c.91,0,1.65-.74,1.66-1.65l.44-77.41c0-.68,.82-1.03,1.32-.56,.45,.43,.71,1.02,.71,1.64V82.04Z"/></g></svg>